<svg xmlns="http://www.w3.org/2000/svg" xmlns:xlink="http://www.w3.org/1999/xlink" width="182.514" height="61.629" viewBox="0 0 182.514 61.629">
  <defs>
    <linearGradient id="linear-gradient" x1="0.5" x2="0.438" y2="1" gradientUnits="objectBoundingBox">
      <stop offset="0" stop-color="#1e1e1e"/>
      <stop offset="0.46" stop-color="#565454"/>
      <stop offset="1" stop-color="#1e1e1e"/>
    </linearGradient>
    <filter id="Path_49" x="0" y="0" width="182.514" height="61.629" filterUnits="userSpaceOnUse">
      <feOffset dx="2" dy="4" input="SourceAlpha"/>
      <feGaussianBlur stdDeviation="3.5" result="blur"/>
      <feFlood flood-opacity="0.302"/>
      <feComposite operator="in" in2="blur"/>
      <feComposite in="SourceGraphic"/>
    </filter>
    <linearGradient id="linear-gradient-2" x1="0.5" x2="3.325" y2="1" gradientUnits="objectBoundingBox">
      <stop offset="0" stop-color="#e3b548"/>
      <stop offset="0.689" stop-color="#fceac0"/>
      <stop offset="1" stop-color="#e3b548"/>
    </linearGradient>
  </defs>
  <g id="best_rated" data-name="best rated" transform="translate(-6.5 -10.5)">
    <path id="Path_60" data-name="Path 60" d="M1065.681,758.736v7.808l-7.015-10.044h7.015Z" transform="translate(-1038.399 -700.134)" fill="#959595"/>
    <g transform="matrix(1, 0, 0, 1, 6.5, 10.5)" filter="url(#Path_49)">
      <path id="Path_49-2" data-name="Path 49" d="M176.514,19.6a2.6,2.6,0,0,0-2.6-2.6H17.6a2.6,2.6,0,0,0-2.579,2.93l4.535,35.429a2.6,2.6,0,0,0,2.579,2.27H173.913a2.6,2.6,0,0,0,2.6-2.6Z" transform="translate(-6.5 -10.5)" fill="url(#linear-gradient)"/>
    </g>
    <g id="Group_107" data-name="Group 107" transform="translate(24.426 21.551)">
      <path id="Path_50" data-name="Path 50" d="M145.134,74.584l2.432-14.647h5.364a5.186,5.186,0,0,1,2.5.515,2.74,2.74,0,0,1,1.3,1.38,3.485,3.485,0,0,1,.172,1.952,3.619,3.619,0,0,1-.594,1.538,3.526,3.526,0,0,1-1.058,1,4.7,4.7,0,0,1-1.309.551l-.029.143a2.513,2.513,0,0,1,1.338.472,2.673,2.673,0,0,1,.958,1.223,3.565,3.565,0,0,1,.15,1.931,4.465,4.465,0,0,1-2.725,3.426,7.2,7.2,0,0,1-2.882.515Zm2.525-1.9h3.19a3.821,3.821,0,0,0,2.375-.615,2.441,2.441,0,0,0,.958-1.538,2.233,2.233,0,0,0-.15-1.273,1.945,1.945,0,0,0-.844-.923A2.879,2.879,0,0,0,151.714,68h-3.269Zm1.08-6.415h2.954a3.376,3.376,0,0,0,1.387-.286,2.867,2.867,0,0,0,1.08-.808,2.445,2.445,0,0,0,.543-1.223,1.739,1.739,0,0,0-.379-1.523,2.324,2.324,0,0,0-1.838-.615h-3.018Z" transform="translate(-112.262 -50.531)" fill="url(#linear-gradient-2)"/>
      <path id="Path_51" data-name="Path 51" d="M190.491,82.112a4.786,4.786,0,0,1-2.675-.694,3.691,3.691,0,0,1-1.473-1.967,6.2,6.2,0,0,1-.136-2.982,7.624,7.624,0,0,1,1.123-2.975,6.171,6.171,0,0,1,2.1-2.01,5.542,5.542,0,0,1,2.8-.722,4.961,4.961,0,0,1,1.752.308,3.441,3.441,0,0,1,1.409.966,3.684,3.684,0,0,1,.8,1.709,6.878,6.878,0,0,1-.014,2.539l-.122.758h-8.74l.25-1.6H194.2a2.923,2.923,0,0,0-.079-1.495,2.023,2.023,0,0,0-.787-1.037,2.391,2.391,0,0,0-1.388-.379,3.037,3.037,0,0,0-1.6.451,4.163,4.163,0,0,0-1.245,1.152,3.5,3.5,0,0,0-.622,1.43l-.251,1.466a4.136,4.136,0,0,0,.064,1.931,1.815,1.815,0,0,0,.9,1.058,3.516,3.516,0,0,0,1.609.329,3.715,3.715,0,0,0,1.151-.172A2.787,2.787,0,0,0,193.6,78.78l1.96.365a4.623,4.623,0,0,1-1.13,1.566,5.338,5.338,0,0,1-1.738,1.037A6.355,6.355,0,0,1,190.491,82.112Z" transform="translate(-139.906 -57.838)" fill="url(#linear-gradient-2)"/>
      <path id="Path_52" data-name="Path 52" d="M231.211,73.587l-2,.343a2.065,2.065,0,0,0-.265-.715,1.405,1.405,0,0,0-.594-.544,2.26,2.26,0,0,0-1.065-.215,3.049,3.049,0,0,0-1.616.422,1.526,1.526,0,0,0-.787,1.073.9.9,0,0,0,.25.858,2.786,2.786,0,0,0,1.208.536l1.688.4a3.831,3.831,0,0,1,2.088,1.094,2.237,2.237,0,0,1,.444,1.917,3.354,3.354,0,0,1-.858,1.738,4.666,4.666,0,0,1-1.759,1.187,6.38,6.38,0,0,1-2.389.429,4.73,4.73,0,0,1-2.918-.794,2.729,2.729,0,0,1-1.073-2.246l2.117-.315a1.624,1.624,0,0,0,.579,1.223,2.351,2.351,0,0,0,1.466.408,3.25,3.25,0,0,0,1.8-.45,1.617,1.617,0,0,0,.822-1.109.939.939,0,0,0-.229-.844,2.1,2.1,0,0,0-1.087-.515l-1.774-.408a3.652,3.652,0,0,1-2.1-1.13,2.382,2.382,0,0,1-.415-1.96,3.187,3.187,0,0,1,.816-1.681,4.473,4.473,0,0,1,1.681-1.123,5.977,5.977,0,0,1,2.246-.408,4.051,4.051,0,0,1,2.7.772A2.965,2.965,0,0,1,231.211,73.587Z" transform="translate(-163.854 -57.838)" fill="url(#linear-gradient-2)"/>
      <path id="Path_53" data-name="Path 53" d="M263.226,65.737l-.279,1.716h-6l.279-1.716Zm-3.962-2.632H261.4L259.671,73.5a1.76,1.76,0,0,0,.036.937.767.767,0,0,0,.415.422,1.8,1.8,0,0,0,.636.107,2.5,2.5,0,0,0,.451-.036l.307-.057.114,1.766a4.817,4.817,0,0,1-.579.143,4.391,4.391,0,0,1-.873.086,3.436,3.436,0,0,1-1.523-.3,2.14,2.14,0,0,1-1.015-.973,2.608,2.608,0,0,1-.165-1.652Z" transform="translate(-187.731 -52.67)" fill="url(#linear-gradient-2)"/>
      <path id="Path_54" data-name="Path 54" d="M294.837,74.584l2.432-14.647h5.221a5.463,5.463,0,0,1,2.725.586,3.035,3.035,0,0,1,1.416,1.616,4.564,4.564,0,0,1,.172,2.389,5.538,5.538,0,0,1-.965,2.36,4.914,4.914,0,0,1-1.952,1.588,6.881,6.881,0,0,1-2.918.565h-3.955l.329-1.9h3.755a4.616,4.616,0,0,0,1.8-.308,2.557,2.557,0,0,0,1.13-.894,3.279,3.279,0,0,0,.543-1.409,2.886,2.886,0,0,0-.079-1.438,1.643,1.643,0,0,0-.837-.93,3.694,3.694,0,0,0-1.709-.329h-2.775l-2.124,12.752Zm8.325-6.608,2.525,6.608h-2.518l-2.46-6.608Z" transform="translate(-213.306 -50.531)" fill="url(#linear-gradient-2)"/>
      <path id="Path_55" data-name="Path 55" d="M337.475,82.134a4.062,4.062,0,0,1-1.824-.386,2.512,2.512,0,0,1-1.152-1.137,2.941,2.941,0,0,1-.193-1.824,3.231,3.231,0,0,1,1.745-2.482,5.747,5.747,0,0,1,1.445-.536,13.535,13.535,0,0,1,1.574-.265q1-.114,1.624-.193a2.9,2.9,0,0,0,.944-.243.735.735,0,0,0,.379-.558v-.05a1.515,1.515,0,0,0-1.717-1.967,3.237,3.237,0,0,0-2.868,1.531l-1.917-.458a4.753,4.753,0,0,1,1.309-1.616,5.233,5.233,0,0,1,1.752-.9,6.719,6.719,0,0,1,1.945-.286,6.291,6.291,0,0,1,1.366.157,3.46,3.46,0,0,1,1.287.558,2.4,2.4,0,0,1,.872,1.166,3.794,3.794,0,0,1,.086,1.952l-1.208,7.295h-2.088l.257-1.5h-.086a3.727,3.727,0,0,1-.758.816,4.082,4.082,0,0,1-1.173.665A4.477,4.477,0,0,1,337.475,82.134Zm.729-1.717a3.43,3.43,0,0,0,1.581-.35,3.186,3.186,0,0,0,1.123-.915,2.773,2.773,0,0,0,.536-1.223l.236-1.416a1.31,1.31,0,0,1-.479.207,7.669,7.669,0,0,1-.758.164q-.422.072-.829.122t-.665.093a6.015,6.015,0,0,0-1.18.265,2.419,2.419,0,0,0-.908.536,1.556,1.556,0,0,0-.458.915,1.184,1.184,0,0,0,.379,1.2A2.266,2.266,0,0,0,338.2,80.417Z" transform="translate(-239.907 -57.838)" fill="url(#linear-gradient-2)"/>
      <path id="Path_56" data-name="Path 56" d="M378.074,65.737l-.279,1.716h-6l.279-1.716Zm-3.962-2.632h2.138L374.52,73.5a1.76,1.76,0,0,0,.036.937.766.766,0,0,0,.415.422,1.8,1.8,0,0,0,.636.107,2.5,2.5,0,0,0,.451-.036l.308-.057.115,1.766a4.837,4.837,0,0,1-.579.143,4.384,4.384,0,0,1-.872.086,3.436,3.436,0,0,1-1.523-.3,2.141,2.141,0,0,1-1.016-.973,2.611,2.611,0,0,1-.164-1.652Z" transform="translate(-265.25 -52.67)" fill="url(#linear-gradient-2)"/>
      <path id="Path_57" data-name="Path 57" d="M397.739,82.112a4.786,4.786,0,0,1-2.675-.694,3.691,3.691,0,0,1-1.473-1.967,6.2,6.2,0,0,1-.136-2.982,7.624,7.624,0,0,1,1.123-2.975,6.17,6.17,0,0,1,2.1-2.01,5.542,5.542,0,0,1,2.8-.722,4.961,4.961,0,0,1,1.752.308,3.441,3.441,0,0,1,1.409.966,3.685,3.685,0,0,1,.8,1.709,6.879,6.879,0,0,1-.014,2.539l-.122.758h-8.74l.25-1.6h6.637a2.923,2.923,0,0,0-.079-1.495,2.023,2.023,0,0,0-.787-1.037,2.391,2.391,0,0,0-1.388-.379,3.037,3.037,0,0,0-1.6.451,4.163,4.163,0,0,0-1.245,1.152,3.5,3.5,0,0,0-.622,1.43l-.251,1.466a4.136,4.136,0,0,0,.064,1.931,1.815,1.815,0,0,0,.9,1.058,3.516,3.516,0,0,0,1.609.329,3.715,3.715,0,0,0,1.151-.172,2.787,2.787,0,0,0,1.645-1.395l1.96.365a4.623,4.623,0,0,1-1.13,1.566,5.338,5.338,0,0,1-1.738,1.037A6.355,6.355,0,0,1,397.739,82.112Z" transform="translate(-279.791 -57.838)" fill="url(#linear-gradient-2)"/>
      <path id="Path_58" data-name="Path 58" d="M433.622,74.8a3.736,3.736,0,0,1-2.267-.679,3.688,3.688,0,0,1-1.309-1.952,6.848,6.848,0,0,1-.086-3.054,8.106,8.106,0,0,1,1.109-3.047,5.8,5.8,0,0,1,1.96-1.938,4.838,4.838,0,0,1,2.482-.672,3.067,3.067,0,0,1,1.588.343,2.334,2.334,0,0,1,.844.787,5.5,5.5,0,0,1,.408.794h.122l.908-5.443h2.138l-2.432,14.647H437l.293-1.709h-.179a6.929,6.929,0,0,1-.694.8,4,4,0,0,1-1.116.787A3.767,3.767,0,0,1,433.622,74.8Zm.722-1.824A2.91,2.91,0,0,0,436,72.488a3.878,3.878,0,0,0,1.223-1.366,6.147,6.147,0,0,0,.686-2.031,5.107,5.107,0,0,0-.007-2,2.39,2.39,0,0,0-.772-1.337,2.273,2.273,0,0,0-1.509-.479,2.857,2.857,0,0,0-1.681.5,3.791,3.791,0,0,0-1.173,1.366,6.47,6.47,0,0,0-.63,1.952,5.544,5.544,0,0,0-.014,1.981,2.5,2.5,0,0,0,.723,1.395A2.129,2.129,0,0,0,434.345,72.974Z" transform="translate(-304.424 -50.531)" fill="url(#linear-gradient-2)"/>
      <path id="Path_59" data-name="Path 59" d="M57.489,31l4.585,8.078,8.9,1.978-6.07,6.971.918,9.3-3.751-2.283V48.717L60.881,47.61l-.667-.451-.569-.546-.306-.348L57.8,44.921l-4.625,4.113v6.21l-4.02,2.084.918-9.3L44,41.056l8.9-1.978Z" transform="translate(-44 -31)" fill="url(#linear-gradient-2)"/>
    </g>
  </g>
</svg>
